<svg height="960" viewBox="0 0 960 960" width="960" xmlns="http://www.w3.org/2000/svg"><g fill="none" fill-rule="evenodd" stroke="#000" stroke-linejoin="round"><path d="m450 82-472 30" stroke-linecap="round" stroke-width="20"/><path d="m451 18-472 30" stroke-linecap="round" stroke-width="20"/><path d="m451 44-472 29" stroke-linecap="round" stroke-width="20"/><path d="m451 99-474 30" stroke-linecap="round" stroke-width="20"/><path d="m457.199531 28.3591983s57.822661-8.4308931 124.136446-7.8439673c13.73394.1025803 43.428579 11.5006233 57.291608 21.5100253 2.591923 1.8714232 5.404056 4.2528803 8.292331 6.9732248v864.4239179c-14.04373 17.940202-53.107777 27.122079-65.845791 27.063405-66.392983-.122517-105.758203-10.678691-124.282547-15.629199-.64312-.17187-1.259676-.336647-1.849959-.493572l-14.861535-3.950898v-889.1845701c10.780676-1.9441355 17.119447-2.8683666 17.119447-2.8683666z" stroke-width="40"/><g stroke-linecap="round" stroke-width="20"><path d="m581 942v-922.9698676c-67.841939-.6005534-129 7.974939-129 7.974939v898.7940726c17.730149 4.713512 59.756458 16.085611 129 16.200856z"/><path d="m452 72s61.158061-8.5699731 129-7.9698958"/><path d="m627 82c-11.625152-8.1295519-36.492575-17.9851311-48-18"/><path d="m456 836c17.73143 4.550735 59.757739 9.890001 129 10"/><path d="m631 836c-16.071585 8.444418-39.109722 10.071766-48 9.997628"/></g></g></svg>