<?xml version="1.0" encoding="UTF-8" standalone="no"?>
<!DOCTYPE svg PUBLIC "-//W3C//DTD SVG 1.1//EN" "http://www.w3.org/Graphics/SVG/1.1/DTD/svg11.dtd">
<svg width="100%" height="100%" viewBox="0 0 442 442" version="1.1" xmlns="http://www.w3.org/2000/svg" xmlns:xlink="http://www.w3.org/1999/xlink" xml:space="preserve" xmlns:serif="http://www.serif.com/" style="fill-rule:evenodd;clip-rule:evenodd;stroke-linejoin:round;stroke-miterlimit:2;">
    <g>
        <g transform="matrix(0.947755,0,0,0.969629,11.6154,6.70581)">
            <path d="M346.9,441.6L94.7,441.6C42.5,441.6 0,399.1 0,346.9L0,94.7C0,42.5 42.5,0 94.7,0L346.8,0C399,0 441.5,42.5 441.5,94.7L441.5,346.8C441.6,399.1 399.1,441.6 346.9,441.6ZM94.7,8C46.9,8 8,46.9 8,94.7L8,346.8C8,394.6 46.9,433.5 94.7,433.5L346.8,433.5C394.6,433.5 433.5,394.6 433.5,346.8L433.5,94.7C433.5,46.9 394.6,8 346.8,8L94.7,8Z" style="fill:rgb(1,1,1);fill-rule:nonzero;stroke:black;stroke-width:10.43px;"/>
        </g>
        <g transform="matrix(0.689664,0,0,0.689664,68.5577,68.5222)">
            <path d="M346.9,441.6L94.7,441.6C42.5,441.6 0,399.1 0,346.9L0,94.7C0,42.5 42.5,0 94.7,0L346.8,0C399,0 441.5,42.5 441.5,94.7L441.5,346.8C441.6,399.1 399.1,441.6 346.9,441.6ZM94.7,8C46.9,8 8,46.9 8,94.7L8,346.8C8,394.6 46.9,433.5 94.7,433.5L346.8,433.5C394.6,433.5 433.5,394.6 433.5,346.8L433.5,94.7C433.5,46.9 394.6,8 346.8,8L94.7,8Z" style="fill:rgb(1,1,1);fill-rule:nonzero;stroke:black;stroke-width:14.5px;"/>
        </g>
        <g transform="matrix(1.38324,0,0,0.989966,-38.1544,2.97647)">
            <g transform="matrix(100.941,0,0,141.042,107.373,220.031)">
                <path d="M0.355,-0.364L0.391,-0.327L0.355,-0.291L0.118,-0.291L0.082,-0.327L0.118,-0.364L0.355,-0.364ZM0.391,-0L0.091,-0C0.067,-0.006 0.052,-0.021 0.045,-0.045L0.118,-0.073L0.364,-0.073L0.391,-0ZM0.045,-0.064L0.045,-0.3L0.064,-0.318L0.118,-0.264L0.118,-0.091L0.045,-0.064ZM0.336,-0.582L0.119,-0.582L0.046,-0.609C0.052,-0.633 0.068,-0.648 0.092,-0.655L0.364,-0.655L0.336,-0.582ZM0.355,-0.391L0.355,-0.582L0.382,-0.655C0.406,-0.648 0.421,-0.633 0.427,-0.609L0.427,-0.355L0.409,-0.336L0.355,-0.391Z" style="fill-rule:nonzero;"/>
            </g>
            <g transform="matrix(100.941,0,0,141.042,155.091,220.031)">
                <path d="M0.355,-0.364L0.391,-0.327L0.355,-0.291L0.118,-0.291L0.082,-0.327L0.118,-0.364L0.355,-0.364ZM0.409,-0.318L0.427,-0.3L0.427,-0.045C0.421,-0.021 0.406,-0.006 0.382,-0L0.355,-0.073L0.355,-0.264L0.409,-0.318ZM0.364,-0L0.091,-0C0.067,-0.006 0.052,-0.021 0.045,-0.045L0.118,-0.073L0.336,-0.073L0.364,-0ZM0.364,-0.582L0.119,-0.582L0.046,-0.609C0.052,-0.633 0.068,-0.648 0.092,-0.655L0.391,-0.655L0.364,-0.582ZM0.118,-0.564L0.118,-0.391L0.064,-0.336L0.045,-0.355L0.045,-0.591L0.118,-0.564Z" style="fill-rule:nonzero;"/>
            </g>
            <g transform="matrix(100.941,0,0,141.042,202.809,220.031)">
                <rect x="0.045" y="-0.073" width="0.073" height="0.073" style="fill-rule:nonzero;"/>
            </g>
            <g transform="matrix(100.941,0,0,141.042,219.326,220.031)">
                <path d="M0.355,-0.364L0.391,-0.327L0.355,-0.291L0.118,-0.291L0.082,-0.327L0.118,-0.364L0.355,-0.364ZM0.409,-0.318L0.427,-0.3L0.427,-0.045C0.421,-0.021 0.406,-0.006 0.382,-0L0.355,-0.073L0.355,-0.264L0.409,-0.318ZM0.364,-0L0.091,-0C0.067,-0.006 0.052,-0.021 0.045,-0.045L0.118,-0.073L0.336,-0.073L0.364,-0ZM0.045,-0.064L0.045,-0.3L0.064,-0.318L0.118,-0.264L0.118,-0.091L0.045,-0.064ZM0.336,-0.582L0.119,-0.582L0.046,-0.609C0.052,-0.633 0.068,-0.648 0.092,-0.655L0.364,-0.655L0.336,-0.582ZM0.118,-0.564L0.118,-0.391L0.064,-0.336L0.045,-0.355L0.045,-0.591L0.118,-0.564ZM0.355,-0.391L0.355,-0.582L0.382,-0.655C0.406,-0.648 0.421,-0.633 0.427,-0.609L0.427,-0.355L0.409,-0.336L0.355,-0.391Z" style="fill-rule:nonzero;"/>
            </g>
        </g>
        <g transform="matrix(0.64973,0,0,0.544259,189.017,192.988)">
            <g transform="matrix(118.146,0,0,141.042,102.784,220.031)">
                <path d="M0.355,-0.364L0.391,-0.327L0.355,-0.291L0.118,-0.291L0.082,-0.327L0.118,-0.364L0.355,-0.364ZM0.409,-0.318L0.427,-0.3L0.427,-0.045C0.421,-0.021 0.406,-0.006 0.382,-0L0.355,-0.073L0.355,-0.264L0.409,-0.318ZM0.364,-0L0.091,-0C0.067,-0.006 0.052,-0.021 0.045,-0.045L0.118,-0.073L0.336,-0.073L0.364,-0ZM0.336,-0.582L0.119,-0.582L0.046,-0.609C0.052,-0.633 0.068,-0.648 0.092,-0.655L0.364,-0.655L0.336,-0.582ZM0.355,-0.391L0.355,-0.582L0.382,-0.655C0.406,-0.648 0.421,-0.633 0.427,-0.609L0.427,-0.355L0.409,-0.336L0.355,-0.391Z" style="fill-rule:nonzero;"/>
            </g>
            <g transform="matrix(118.146,0,0,141.042,158.635,220.031)">
                <path d="M0.355,-0.364L0.391,-0.327L0.355,-0.291L0.118,-0.291L0.082,-0.327L0.118,-0.364L0.355,-0.364ZM0.409,-0.318L0.427,-0.3L0.427,-0.045C0.421,-0.021 0.406,-0.006 0.382,-0L0.355,-0.073L0.355,-0.264L0.409,-0.318ZM0.364,-0L0.091,-0C0.067,-0.006 0.052,-0.021 0.045,-0.045L0.118,-0.073L0.336,-0.073L0.364,-0ZM0.045,-0.064L0.045,-0.3L0.064,-0.318L0.118,-0.264L0.118,-0.091L0.045,-0.064ZM0.364,-0.582L0.119,-0.582L0.046,-0.609C0.052,-0.633 0.068,-0.648 0.092,-0.655L0.391,-0.655L0.364,-0.582ZM0.118,-0.564L0.118,-0.391L0.064,-0.336L0.045,-0.355L0.045,-0.591L0.118,-0.564Z" style="fill-rule:nonzero;"/>
            </g>
        </g>
        <g transform="matrix(0.948071,0,0,0.436382,16.4712,216.724)">
            <g transform="matrix(64.9194,0,0,141.042,102.784,220.031)">
                <path d="M0.236,-0.582L0.136,-0.582L0.1,-0.618L0.136,-0.655L0.236,-0.655L0.273,-0.618L0.236,-0.582ZM0.064,-0.336L0.045,-0.355L0.045,-0.564L0.091,-0.609L0.118,-0.582L0.118,-0.391L0.064,-0.336ZM0.273,-0.036L0.236,-0L0.136,-0L0.1,-0.036L0.136,-0.073L0.236,-0.073L0.273,-0.036ZM0.118,-0.264L0.118,-0.073L0.091,-0.045L0.045,-0.091L0.045,-0.3L0.064,-0.318L0.118,-0.264Z" style="fill-rule:nonzero;"/>
            </g>
            <g transform="matrix(64.9194,0,0,141.042,123.44,220.031)">
                <path d="M0.245,-0.555L0.245,-0.655L0.426,-0.473L0.426,-0.436L0.391,-0.409L0.245,-0.555ZM0.081,-0.409L0.045,-0.436L0.045,-0.473L0.227,-0.655L0.226,-0.555L0.081,-0.409Z" style="fill-rule:nonzero;"/>
            </g>
            <g transform="matrix(64.9194,0,0,141.042,154.071,220.031)">
                <path d="M0.354,-0.073L0.426,-0.045C0.42,-0.021 0.405,-0.006 0.381,-0L0.091,-0C0.067,-0.006 0.052,-0.021 0.045,-0.045L0.118,-0.073L0.354,-0.073Z" style="fill-rule:nonzero;"/>
            </g>
            <g transform="matrix(64.9194,0,0,141.042,184.701,220.031)">
                <path d="M0.245,-0.555L0.245,-0.655L0.426,-0.473L0.426,-0.436L0.391,-0.409L0.245,-0.555ZM0.081,-0.409L0.045,-0.436L0.045,-0.473L0.227,-0.655L0.226,-0.555L0.081,-0.409Z" style="fill-rule:nonzero;"/>
            </g>
            <g transform="matrix(64.9194,0,0,141.042,215.331,220.031)">
                <path d="M0.218,-0.318L0.236,-0.3L0.236,-0.045C0.23,-0.021 0.215,-0.006 0.191,-0L0.164,-0.073L0.164,-0.264L0.218,-0.318ZM0.145,-0.582L0.1,-0.582L0.045,-0.636L0.064,-0.655L0.173,-0.655L0.145,-0.582ZM0.164,-0.391L0.164,-0.582L0.191,-0.655C0.215,-0.648 0.23,-0.633 0.236,-0.609L0.236,-0.355L0.218,-0.336L0.164,-0.391ZM0.173,-0L0.064,-0L0.045,-0.018L0.1,-0.073L0.145,-0.073L0.173,-0Z" style="fill-rule:nonzero;"/>
            </g>
        </g>
    </g>
</svg>
