<svg height="960" viewBox="0 0 960 960" width="960" xmlns="http://www.w3.org/2000/svg"><g fill="none" fill-rule="evenodd" stroke="#000" stroke-linecap="round" stroke-linejoin="round"><path d="m241.28797 55.4101862 1.442141.1625335 194.233664 23.7600231c41.690821 5.1026874 73.323549 44.0504972 73.964169 90.7615022l.009904 1.417834.061152 321.48802-.061152 323.487822-.009904 1.417834c-.64062 46.711005-32.273348 85.658815-73.964169 90.761502l-194.233664 23.760023-1.442141.162534c-47.533119 4.900742-89.254673-35.910913-90.988982-89.440166l-.297988-348.149747h-.002l.001-1-.001-.999802.002-.000198.297988-348.149549c1.734309-53.5292532 43.455863-94.3409081 90.988982-89.4401658z" stroke-width="20"/><path d="m217.434592 55.2388695 213.736501 15.3628729c46.351348 3.3312724 82.478521 43.6118326 83.924552 93.5543146l9.510885 329.014242.053.000692-.026.913308.026.915h-.053l-9.510885 329.014934c-1.431571 49.443057-36.854128 89.416465-82.537103 93.443319l-1.387449.110995-213.736501 15.362873c-15.723798 1.124649-63.151738-11.58502-142.2838184-38.129009-4.1740437-2.842363-8.1423469-6.002256-11.7644487-9.555364l-.0172152-.006894c-16.2994582-15.988985-26.6554889-38.738344-26.8235794-64.107652l1.244-327.047202-1.244-327.047511c.1680905-25.369308 10.5241212-48.118666 26.8235794-64.107652l.0172152-.006893c3.6221018-3.5531082 7.590405-6.7130013 11.7644487-9.5553645 79.1320804-26.5439884 126.5600204-39.2536581 142.2838184-38.129009z" stroke-width="40"/><path d="m724.598483 262.214879.830931.086069 111.913334 12.58201c24.02137 2.702105 42.247456 23.326952 42.616534 48.062834l.005706.750816.035012 169.303949-.035012 171.302835-.005706.750816c-.369078 24.735882-18.595164 45.360729-42.616534 48.062834l-111.913334 12.58201-.830931.086069c-27.38758 2.595161-51.42669-19.016743-52.426-47.363241l-.170483-183.422437h-.002l.001-1-.001-.998886.002-.000114.170483-183.422323c.99931-28.346498 25.03842-49.958402 52.426-47.363241z" stroke-width="20"/><path d="m709.058688 252.037884 118.228233 8.487795c25.639223 1.840486 45.622949 24.09499 46.422821 51.687584l5.232133 180.785882.058125.000855-.029125.999145.029125 1.000855-.058125-.000855-5.232133 180.787592c-.791873 27.316668-20.385842 49.401474-45.655355 51.62626l-.767466.061324-118.228233 8.487795c-8.69761.621354-34.93235-6.400579-78.704218-21.065799-2.30887-1.57037-4.503935-3.316171-6.507499-5.279219l-.009522-.003809c-9.016037-8.833713-14.74447-21.402448-14.837449-35.418672l.686875-180.195472-.686875-180.193762c.092979-14.016224 5.821412-26.584959 14.837449-35.418672l.009522-.003809c2.003564-1.963048 4.198629-3.708849 6.507499-5.279219 43.771868-14.66522 70.006608-21.687153 78.704218-21.065799z" stroke-width="40"/></g></svg>