<?xml version="1.0" encoding="UTF-8"?>
<svg width="960px" height="960px" viewBox="0 0 960 960" version="1.1" xmlns="http://www.w3.org/2000/svg" xmlns:xlink="http://www.w3.org/1999/xlink">
    <!-- Generator: Sketch 60.1 (88133) - https://sketch.com -->
    <title>sensor_miflorapot_thick</title>
    <desc>Created with Sketch.</desc>
    <g id="sensor_miflorapot_thick" stroke="none" stroke-width="1" fill="none" fill-rule="evenodd">
        <ellipse id="Oval" stroke="#000000" stroke-width="30" fill="#000000" cx="493.5" cy="52" rx="437.5" ry="30"></ellipse>
        <path d="M493.5,22 C735.124578,22 931,35.5011822 931,52.1557346 C931,52.978219 930.522284,53.7930129 929.584935,54.5988697 L910.898649,247.872365 C910.898649,267.32535 901.80219,285.965714 885.147459,303.205127 C874.060184,324.543906 859.865469,366.357271 855.773629,432.478801 L854.951233,446.303919 C850.426713,521.298043 842.795328,627.052303 840.509368,666.40882 L840.231971,671.235602 C837.930664,710.181366 831.828264,770.918967 831.703965,798.461913 L831.702038,799.303113 C831.702038,826.986284 823.526728,905.232995 760.690777,919.561126 C730.986096,926.334519 622.044413,938.671981 510.586278,938.985834 C386.270877,939.335892 258.45318,926.890733 226.309223,919.561126 C164.101632,905.376276 155.466935,828.544826 155.300461,800.148662 L155.297962,799.303113 C155.297962,772.173605 149.093061,710.582869 146.768029,671.235602 L146.415048,665.116345 C143.911887,622.589468 135.692461,508.96689 131.347261,434.489928 C127.42161,367.204074 113.051809,324.759449 101.855736,303.203054 C85.9526897,286.747095 76.9414776,269.01223 76.1572708,250.512436 L76.1013514,247.872365 L57.4150652,54.5988697 C56.4777156,53.7930129 56,52.978219 56,52.1557346 C56,35.6677278 247.977501,22.270339 486.265138,22 L493.5,22 Z" id="Path" stroke="#000000" stroke-width="40" stroke-linejoin="round"></path>
        <path d="M101,329 C196.770488,362.333333 327.770488,379 494,379" id="Path-4" stroke="#000000" stroke-width="20"></path>
        <path d="M493,329 C588.770488,362.333333 719.770488,379 886,379" id="Path-4" stroke="#000000" stroke-width="20" transform="translate(689.500000, 354.000000) scale(-1, 1) translate(-689.500000, -354.000000) "></path>
        <path d="M97,295 C193.745251,311.666667 326.078584,320 494,320" id="Path-4" stroke="#000000" stroke-width="20"></path>
        <path d="M494,295 C590.50156,311.666667 722.50156,320 890,320" id="Path-4" stroke="#000000" stroke-width="20" transform="translate(692.000000, 307.500000) scale(-1, 1) translate(-692.000000, -307.500000) "></path>
    </g>
</svg>