<svg height="960" viewBox="0 0 960 960" width="960" xmlns="http://www.w3.org/2000/svg"><g fill="none" fill-rule="evenodd" stroke="#000" stroke-linejoin="round"><g stroke-linecap="round" stroke-width="20"><path d="m756.638254 927.078125-506.813421-66.823592c-10.3302-1.361909-17.9514-10.520332-17.6004-21.149103l23.455801-708.900201c.3312-10.005711 7.6518-18.324199 17.3628-19.722866l506.709021-73.0247802c12.3822-1.7846336 23.3604 8.2339428 23.0112 21.00023l-23.3496 848.7467352c-.334801 12.202042-10.918801 21.437658-22.775401 19.873577z" transform="matrix(-1 0 0 1 1034.984152 0)"/><path d="m213.602595 34.2098323 15.676201-1.681159c20.368801-1.5874551 23.067001 7.5146888 23.067001 26.5880346-.520773 371.6698231-.911352 650.4221901-1.171738 836.2571011-.001821 1.299323-.007395 4.434732-.011583 4.699179-.464014 29.29772-26.3997 27.247685-26.3997 27.247685" transform="matrix(-1 0 0 1 465.948392 0)"/><path d="m532.033638 879.031654c-3.0258-.3906-3.8106-16.882201-6.2928-73.144803-2.4822-56.260802 3.3084-221.736609 7.4466-335.086213 4.1346-113.351405 8.9388-256.689011 23.661001-366.283815 0 0 1.89-21.7980008 7.5654-22.5990008" transform="matrix(-1 0 0 1 1089.557028 0)"/></g><path d="m729.377086 19.5996405c1.736352 0 3.370118.0694617 4.90421.1982712l45.567302 3.51469 1.542178.1002717c11.261048 1.0069368 21.190607 6.2504857 28.280555 14.0692053 7.010628 7.7312457 11.244958 17.9802749 11.244958 29.1409629v821.2086324c0 11.299994-4.17948 21.73021-11.158785 29.712326-6.882221 7.871081-16.486539 13.361087-27.487905 14.95866l-23.541215 4.171028c-5.538743.979163-11.147934 1.471787-16.763898 1.471787-2.232352 0-4.466838-.077336-6.699311-.233746l-50.69708-2.686127c-1.780941-.015489-3.258244-.115588-4.751537-.307407l-506.820966-65.445377c-10.279815-1.327295-19.210732-6.453836-25.484658-13.837908-6.273778-7.383897-9.890792-17.025607-9.541468-27.385299l23.454136-694.273022c.331354-9.750771 4.139728-18.679237 10.280384-25.510604 6.131706-6.821412 14.588698-11.5520224 24.232037-12.9234672l504.547856-73.1815544c1.975101-.2249637 4.191325-.4942072 6.648719-.8073495l16.15098-1.6968822c2.1736-.1752073 4.204872-.2570912 6.093508-.2570912z" stroke-width="40" transform="matrix(-1 0 0 1 958.862702 0)"/></g></svg>