<svg height="960" viewBox="0 0 960 960" width="960" xmlns="http://www.w3.org/2000/svg"><g fill="none" fill-rule="evenodd"><path d="m481.5 23c102.706484 0 186.528452 4.4332605 191.286828 10.0001457l.213172-.0001457v78.702612l-18.49318 13.797388v232.107486l18.49318 11.841196v83.551318l-.086334.000511c-1.933049 11.186583-36.17336 20.97481-87.194356 26.689085-8.05791 4.447183-30.351038 8.102878-59.717584 9.968794l-.001726 24.028024c0 7.036662-5.119618 14.073323-14.999157 16.954581l.000671 84.666951c26.905361 2.480952 45.750164 8.224759 45.750164 14.914276l-.000028.013767c.000019.00467.000028.00934.000028.014011l-.000678-.001.050129.001c24.028816 108.990646 39.205284 167.661427 45.529404 176.012344l.188931.237656c4.270752 5.097113 12.488226 11.223742 24.652423 18.379888 25.547548 8.545929 40.828113 19.396876 40.828113 31.205582l-.004.13253.004.282v31.25l-.013262.000946c-1.202403 28.361348-84.010936 51.249054-185.986738 51.249054-102.408518 0-185.486756-23.082358-185.997631-51.610387l.015631.360387h-.018v-31.25l.001572-.207124c-.001048-.069102-.001572-.138238-.001572-.207406 0-11.293128 13.975369-21.710304 37.53813-30.07398 13.237357-7.644118 22.101783-14.147811 26.595885-19.51149 6.200505-7.40026 21.413165-66.028779 45.637979-175.88556-.014149-.122301-.020316-.243216-.020316-.36444l.000028-.013738c-.000019-.00468-.000028-.00936-.000028-.01404 0-6.730746 19.077806-12.504088 46.248548-14.959775l-.000276-84.345119c-11.506145-2.823639-14.99995-10.649782-14.99995-17.230914l-.000728-24.027961c-29.047755-1.84561-51.174986-5.442344-59.454029-9.82355l-.210615-.113721c-45.351244-5.073011-77.464222-13.377794-85.417281-23.027362-.012548-.021263-.029489-.041907-.046319-.062557-.130007-.153906-.249373-.308687-.362507-.463802-.006324-.014048-.0165-.028037-.026625-.042027-.1127-.150768-.215722-.301976-.312808-.453492-.029255-.050312-.060459-.099919-.091024-.149559-.07763-.121796-.149005-.244508-.216477-.367416-.032083-.062397-.065155-.124347-.097233-.186345-.058723-.109916-.112498-.220353-.163119-.330944-.033781-.077047-.067499-.153924-.099686-.230875-.042654-.099098-.081518-.198459-.11783-.297939-.030886-.08713-.060852-.174472-.088842-.261905-.028649-.08731-.054569-.174731-.078516-.26224-.026062-.097068-.050202-.194005-.071911-.291048-.018894-.082993-.035642-.166088-.050609-.249261-.002374-.01452-.004968-.029209-.007507-.043899l-.086334-.000511v-420l.213172.0001457.006317-.0079981c.027018-.0311892.056512-.0623427.08847-.09346l-.094787.1014581c.05003-.0585304.108799-.1169354.176239-.1752113.044209-.0391919.093566-.078488.146846-.1177239.02251-.0154984.043936-.0307839.065959-.0460601.066345-.0472474.140309-.0946195.219977-.1419008.014083-.0070588.025309-.0136335.036646-.0202065.073771-.0442105.155779-.0888571.242859-.1334202.026178-.01189.049937-.0238251.07406-.0357541 10.58387-5.2483457 91.533649-9.3298688 189.824242-9.3298688z" stroke="#000" stroke-linecap="round" stroke-linejoin="round" stroke-width="40"/><path d="m436.012278 488.622783h88.725785v18.681028c0 6.659486-8.642729 13.318972-25.138003 13.318972-16.495275 0-19.224889 0-38.707797 0s-24.879985-7.361007-24.879985-13.318972c0-3.971976 0-10.198986 0-18.681028z" stroke="#000" stroke-linecap="round" stroke-linejoin="round" stroke-width="20"/><path d="m510 532v90l-.78981.000398c-3.073937 2.8665-14.761504 4.999602-28.71019 4.999602s-25.636253-2.133102-28.71019-4.999602l-.78981-.000398v-90z" stroke="#000" stroke-linecap="round" stroke-linejoin="round" stroke-width="20"/><path d="m374.893023 479.427887c10.778505 6.69357 53.632711 11.694214 104.857318 11.694214 52.155823 0 95.634147-5.18411 105.413204-12.060922" stroke="#004dff" stroke-width="2"/><g stroke="#000" stroke-linecap="round" stroke-linejoin="round"><path d="m374.893023 479.427887c4.419187 2.744364 14.2303 5.204147 27.799545 7.151377l2.012381.281276c1.699025.231302 3.452756.454817 5.25823.67013l2.191215.254413c2.584952.29216 5.268996.567921 8.044003.826148l2.400664.217017c.40376.035445.809329.070525 1.216684.105238l2.465359.203837 2.507068.194853c.421257.031717.844205.063054 1.268819.094007l2.567497.181077c.431186.029402.863992.058414 1.298393.087031l2.625365.166945c.440689.027026.882926.053653 1.326688.079874l2.680674.152456c.899529.049184 1.804967.096726 2.716123.142597l2.750436.132581c.922405.042506 1.850338.083317 2.783611.122405l2.815646.11207c.471881.017808.94505.035179 1.419482.05211l2.861568.096271 2.890759.085539 2.918814.07465 2.945729.0636 2.971508.052393c.497337.007789.9957.015105 1.495065.021944l3.008042.035284c.503283.004918 1.007522.009352 1.512692.0133l3.042016.017817 3.063242.005974 1.562046-.001552 3.107873-.012351c1.032253-.006158 2.060735-.014348 3.085246-.024541l3.061416-.036565c.508184-.007087 1.015325-.014667 1.521398-.022738l3.023421-.054285 2.996591-.065888 2.968558-.077325 2.939325-.088594 2.908891-.099695c.482212-.017531.963106-.035518 1.442657-.053958l2.860987-.116032c.474078-.020233.946763-.040912 1.41803-.062032l2.810381-.131993 2.775143-.142424c.45952-.024597.917522-.049622 1.373981-.075071l2.720033-.157755 2.681792-.167767 2.64235-.177612c.437038-.030413.872382-.061229 1.306008-.092445l2.580935-.192064c.426652-.032801.851535-.065994 1.274625-.099577l2.516817-.206139c2.079078-.175628 4.112066-.360812 6.095837-.555116l2.3567-.237514c.388779-.040306.775539-.08097 1.160256-.121988l2.283575-.250333c.752882-.084843 1.49739-.171075 2.233322-.258668l2.181871-.266837 2.129216-.274838c.350415-.046464.698586-.093254 1.044488-.140367l2.047984-.286524c14.142493-2.032405 24.194247-4.622073 28.301451-7.510334 1.349714-.949143 2.057465-1.930531 2.057465-2.934985" stroke-width="20"/><path d="m295 846c0 27.614237 83.275037 50 186 50s186-22.385763 186-50" stroke-width="20"/><path d="m404 634c0 8.836556 33.802501 16 75.5 16s75.5-7.163444 75.5-16" stroke-width="20"/><path d="m288.552524 448.757844c0 13.254834 85.602178 24 191.197817 24s191.197817-10.745166 191.197817-24" stroke-width="20"/><path d="m288.552524 407.5191c0 18.28944 85.602178 33.115961 191.197817 33.115961s191.197817-14.826521 191.197817-33.115961" stroke-width="20"/><path d="m347.761327 388.224096c34.317355 5.139198 80.80439 8.295004 131.989014 8.295004 105.595639 0 191.197817-13.431458 191.197817-30" stroke-width="20"/><path d="m348.196415 122.935059c34.274684 4.080658 80.585291 6.584041 131.553926 6.584041 105.595639 0 191.197817-10.745166 191.197817-24" stroke-width="20"/><path d="m288.552524 45.122101c0 5.8664243 85.602178 10.6221009 191.197817 10.6221009s191.197817-4.7556766 191.197817-10.6221009" stroke-width="20"/><path d="m347.164402 129.635061-.164402 257.364939" stroke-width="20"/></g><path d="m527.413676 82.0762915 25.172648-.7051883c6.529948-.1829304 11.823517 4.612055 11.823517 10.7098996s-5.293569 11.3590902-11.823517 11.7513202l-25.172648 1.51203c-6.529948.392231-11.823517-4.583372-11.823517-11.1133202 0-6.5299478 5.293569-11.9718109 11.823517-12.1547413z" fill="#000"/></g></svg>