<?xml version="1.0" encoding="UTF-8"?>
<svg width="960px" height="960px" viewBox="0 0 960 960" version="1.1" xmlns="http://www.w3.org/2000/svg" xmlns:xlink="http://www.w3.org/1999/xlink">
    <!-- Generator: Sketch 60.1 (88133) - https://sketch.com -->
    <title>Community/Capabilities/fertility</title>
    <desc>Created with Sketch.</desc>
    <g id="Community/Capabilities/fertility" stroke="none" stroke-width="1" fill="none" fill-rule="evenodd">
        <path d="M480.529879,566 C531.215834,566 574.283673,595.578445 589.888946,636.739583 C596.800437,635.713212 603.950984,635.174468 611.269805,635.174468 C652.679699,635.174468 688.702643,652.421261 707.193195,677.832837 C717.81145,672.670533 729.826471,669.761702 742.549979,669.761702 C781.795939,669.761702 814.301152,697.437146 820,733.546382 C817.035906,740.147307 817.003252,738.777722 814.844592,743.077772 C814.579646,744.644328 813.918734,746.476918 812.837462,748.595904 C751.226344,869.336164 625.806845,952 481.106223,952 C331.374339,952 202.287705,863.48776 143.181599,735.865212 C141.959778,733.227042 141.273473,731.174734 141.067111,729.641973 L141.078149,729.654376 C139.307614,725.422247 137.633342,721.22665 136,717.053847 C147.531312,689.342887 175.77368,669.761702 208.785322,669.761702 C222.468794,669.761702 235.332839,673.126023 246.52699,679.039121 C264.741035,652.968678 301.245042,635.174468 343.306982,635.174468 C352.797501,635.174468 362.005068,636.080368 370.783473,637.782837 C386.049853,596.079691 429.416259,566 480.529879,566 Z" id="Combined-Shape" stroke="#000000" stroke-width="30" stroke-linejoin="round"></path>
        <circle id="Oval" fill="#000000" cx="321.658593" cy="770" r="38"></circle>
        <ellipse id="Oval" fill="#000000" cx="434.658593" cy="716" rx="33" ry="32"></ellipse>
        <circle id="Oval" fill="#000000" cx="428.658593" cy="827" r="28"></circle>
        <circle id="Oval" fill="#000000" cx="573.658593" cy="798" r="26"></circle>
        <circle id="Oval" fill="#000000" cx="650.658593" cy="761" r="22"></circle>
        <circle id="Oval" fill="#000000" cx="646.658593" cy="836" r="18"></circle>
        <path d="M500.011554,79.7060216 C530.427012,115.500683 539.590158,168.030353 527.500991,237.295033 C542.383085,197.720448 563.494154,168.592124 590.8315,149.910664 C649.602386,109.748537 707.107603,137.514003 787.658593,135.351573 L784.464715,140.928022 C732.875448,230.904941 709.116448,267.037381 645.166772,294.070643 C612.379993,307.930504 579.025462,311.447331 545.103181,304.621125 L545.428088,313.143024 C547.909367,380.044923 547.549604,416.81419 543.658341,454.156502 C539.648189,492.639722 531.571416,527.582045 517.664512,565.053496 C513.358097,576.656913 496.577139,564.433915 491.100265,576.702603 L490.100832,578.931067 L457,581.659129 C478.601107,533.715072 489.611938,494.197819 494.347855,448.749835 L494.593757,446.337542 L494.815217,444.066134 C498.3559,406.925604 498.152959,367.535891 494.857342,289.650975 L494.853973,289.602779 C429.072841,297.443137 374.14503,286.051471 330.07054,255.427783 C256.947126,204.62042 248.44296,150.958381 234.658593,16.0069963 L258.189092,16.0009138 C361.21324,16.0531095 448.059489,18.5658421 500.011554,79.7060216 Z M663.123629,175.941355 C597.129147,199.640947 556.18359,229.482624 540.747843,266.085739 C539.138341,269.902385 540.927585,274.301148 544.744231,275.91065 C548.560878,277.520152 552.95964,275.730908 554.569143,271.914261 C568.039945,239.970662 605.761055,212.479005 668.193356,190.058645 C672.091738,188.658678 674.117104,184.363518 672.717138,180.465137 C671.317171,176.566755 667.022011,174.541389 663.123629,175.941355 Z M373.585134,100.599648 C371.154887,103.953926 371.903962,108.643211 375.25824,111.073459 C439.1967,157.398258 475.392415,203.289255 484.300364,248.451365 C485.101931,252.515203 489.04612,255.159796 493.109958,254.358229 C497.173796,253.556662 499.818389,249.612472 499.016822,245.548635 C489.252353,196.044078 450.781402,147.268408 384.058945,98.9265414 C380.704667,96.4962939 376.015382,97.2453691 373.585134,100.599648 Z" id="Shape" fill="#000000" fill-rule="nonzero"></path>
    </g>
</svg>