<svg height="960" viewBox="0 0 960 960" width="960" xmlns="http://www.w3.org/2000/svg"><g fill="none" fill-rule="evenodd"><path d="m277.377274 23c2.201436 0 4.382461.0197233 6.543318.0578027 4.898231-.13824 9.859975-.0204074 14.873065.3585798l466.412686 35.2605725c92.669513 7.0057701 167.793657 89.240168 167.793657 183.67666v475.294655c0 94.434607-75.124144 176.669005-167.793657 183.674775l-431.060535 32.588635c-10.702142 1.191288-22.341223 2.143025-35.18783 2.660491l-.164321.011446c-4.845964.366353-9.643949.488673-14.385722.375975-2.305189.025294-4.648938.040408-7.030661.040408-88.062852 0-250.377274-98.959289-250.377274-200.775541v-512.446886c0-101.818284 148.461747-200.777573 250.377274-200.777573z" stroke="#000" stroke-linecap="round" stroke-linejoin="round" stroke-width="40"/><path d="m765.7088 900.823045-466.694227 35.260572c-92.725451 7.005771-167.894942-75.228627-167.894942-183.674775v-545.81552c0-108.4483121 75.169491-190.6827096 167.894942-183.6769394l466.694227 35.2605724c92.725451 7.0057702 167.894942 89.240168 167.894942 183.67666v475.294655c0 94.434607-75.169491 176.669005-167.894942 183.674775z" stroke="#000" stroke-linecap="round" stroke-linejoin="round" stroke-width="20"/><path d="m544.554786 319.064523c17.82691 1.12342 32.665957 16.232962 33.331187 33.803008l.015811.53316 3.093469 144.608924c18.619382 10.719258 30.42227 29.615984 30.983864 50.19832.899854 32.979445-27.394636 61.543024-63.077465 63.67243-35.68283 2.129406-64.795527-24.423526-64.901652-59.189803-.065094-21.478275 10.932088-41.638281 28.895654-53.401882l.545334-.35132-1.261194-148.732215c-.155228-18.305883 14.368011-32.27539 32.374992-31.140622zm-.310972 10.972102c-11.839733-.688645-21.39282 8.416153-21.463849 20.364468l.000833.370437 1.622926 155.117537-2.904474 1.65227c-16.422673 9.390602-26.592162 26.909893-26.49925 45.624564.143148 28.507888 24.024907 50.37684 53.236236 48.748781s52.42634-25.163727 51.749325-52.464113c-.439954-17.740947-10.897604-33.94786-27.293939-42.524534l-.502954-.262025-2.951081-1.521577-1.68862-88.939892-10.013252-.210378c-3.09635-.065055-5.644671-2.591151-5.693299-5.643646-.047412-2.976184 2.294098-5.340693 5.275081-5.3832l.230537.00134 9.992492.257277-.284855-15.003364-9.964122-.321369c-3.081158-.099375-5.617203-2.655491-5.665796-5.705776-.047412-2.976184 2.282395-5.314257 5.248712-5.323631l.229404.003902 9.943362.368267-.284897-15.00556-9.914988-.432368c-3.065964-.133699-5.589664-2.715417-5.638291-5.767912-.047378-2.974029 2.270693-5.287711 5.222341-5.264053l.228269.006459 9.894228.479266-.007004-.368881c-.226033-11.905201-10.141284-22.156543-22.103075-22.852289zm2.21527 108.963375c5.299853.061095 9.682489 4.228785 9.917091 9.366789l.008582.276159 1.112672 67.457913c16.58302 3.701863 29.120753 17.614115 29.494125 34.549376.442411 20.066736-16.550166 37.213499-37.953126 38.297501-21.407613 1.084238-38.880977-14.832788-39.037359-35.550343-.128657-17.044434 11.372444-31.663821 27.198141-36.546835l.480495-.1441-.868924-68.207187c-.067621-5.307995 4.251547-9.560154 9.648303-9.499273z" fill="#000"/></g></svg>