<?xml version="1.0" encoding="utf-8"?>
<!-- Generator: Adobe Illustrator 24.1.0, SVG Export Plug-In . SVG Version: 6.00 Build 0)  -->
<svg version="1.1" id="Layer_1" xmlns="http://www.w3.org/2000/svg" xmlns:xlink="http://www.w3.org/1999/xlink" x="0px" y="0px"
	 viewBox="0 0 116.09 74.18" style="enable-background:new 0 0 116.09 74.18;" xml:space="preserve">
<style type="text/css">
	.st0{fill:#FFFFFF;}
</style>
<g>
	<path class="st0" d="M114.87,0H99.14c-0.67,0-1.22,0.54-1.22,1.2v71.79c0,0.65,0.55,1.19,1.22,1.19h15.73
		c0.67,0,1.22-0.54,1.22-1.19V1.2C116.09,0.54,115.54,0,114.87,0"/>
	<path class="st0" d="M61.15,0H1.22C0.54,0,0,0.54,0,1.2v71.79c0,0.65,0.54,1.19,1.22,1.19h15.74c0.67,0,1.22-0.54,1.22-1.19V16.64
		c0-0.65,0.54-1.19,1.22-1.19h33.9c9.53,0,12.24,7.3,12.24,12.01v45.52c0,0.65,0.55,1.19,1.22,1.19h15.73
		c0.67,0,1.22-0.54,1.22-1.19V22.06c0-4.2-0.51-10.24-5.93-15.56C72.11,0.95,66.93,0,61.15,0"/>
	<path class="st0" d="M50.12,28.6H33.6c-0.67,0-1.23,0.54-1.23,1.19v43.21c0,0.65,0.55,1.19,1.23,1.19h16.52
		c0.67,0,1.22-0.54,1.22-1.19V29.79C51.34,29.13,50.79,28.6,50.12,28.6"/>
</g>
</svg>
