<?xml version="1.0" encoding="UTF-8"?>
<svg width="960px" height="960px" viewBox="0 0 960 960" version="1.1" xmlns="http://www.w3.org/2000/svg" xmlns:xlink="http://www.w3.org/1999/xlink">
    <!-- Generator: Sketch 60.1 (88133) - https://sketch.com -->
    <title>sensor_miflora_thick</title>
    <desc>Created with Sketch.</desc>
    <g id="sensor_miflora_thick" stroke="none" stroke-width="1" fill="none" fill-rule="evenodd">
        <path d="M557.510937,445 L403.489063,445 C394.934374,445 388,438.034058 388,429.440423 L388,112.029414 C388,61.7554356 428.570737,21 478.616881,21 L482.383119,21 C532.429263,21 573,61.7554356 573,112.029414 L573,429.440423 C573,438.034058 566.065626,445 557.510937,445 Z" id="Stroke-1" stroke="#000000" stroke-width="40"></path>
        <path d="M410,435 L410,895.122261 C410,922.882264 426.883662,946.71938 451.02031,957.109203 C458.137465,960.172744 466.091643,954.954771 466.091643,947.258292 L466.091643,552.956041 C466.091643,544.241213 473.214916,537.177105 482,537.177105 C490.786308,537.177105 497.908357,544.241213 497.908357,552.956041 L497.908357,947.258292 C497.908357,954.954771 505.862535,960.172744 512.97969,957.109203 C537.116338,946.71938 554,922.882264 554,895.122261 L554,435 L410,435 Z" id="Fill-3" fill="#000000"></path>
        <polygon id="Fill-6" fill="#231F20" points="443 905.5 442.0006 905.5 441 905.5 442.0006 905.5"></polygon>
    </g>
</svg>